<svg xmlns="http://www.w3.org/2000/svg" viewBox="0 0 259.25 101.61"><defs><style>.a{fill:#4c28e5;}.b{fill:#ec2e48;}</style></defs><path class="a" d="M38.32,101.61,28.85,74.35,0,73.76,23,56.33,14.64,28.71,38.32,45.19,62,28.71,53.65,56.33l23,17.43-28.85.59ZM14.69,69l17.79.36,5.84,16.81,5.85-16.81L62,69,47.78,58.24l5.15-17L38.32,51.37,23.72,41.2l5.15,17Z"/><path class="b" d="M80.57,70.58l-5.21-15-15.84-.32,12.63-9.57L67.56,30.55l13,9.05,13-9L89,45.72l12.63,9.57-15.84.32Zm-13-17.91,9.77.2,3.21,9.22,3.2-9.22,9.77-.2-7.78-5.91,2.83-9.35-8,5.58-8-5.58,2.83,9.35Z"/><path class="b" d="M38.32,40l-5.2-15-15.84-.32,12.63-9.57L25.32,0l13,9.05,13-9L46.74,15.17l12.63,9.57-15.84.32Zm-13-17.91,9.77.2,3.2,9.22,3.21-9.22,9.77-.2-7.78-5.91,2.83-9.35-8,5.58-8-5.58,2.82,9.35Z"/><path d="M130.65,50.62h-4.82V38h-4.67V33.29h14.16V38h-4.67Z"/><path d="M136.56,38.1a4.54,4.54,0,0,1,.43-2,4.46,4.46,0,0,1,1.24-1.63,6.23,6.23,0,0,1,2-1.1,8.89,8.89,0,0,1,5.46,0,6.64,6.64,0,0,1,2.13,1.24,5.29,5.29,0,0,1,1.35,1.84,5.57,5.57,0,0,1,.47,2.25L145,39.2a1.69,1.69,0,0,0-.53-1.31,1.84,1.84,0,0,0-1.26-.48,1.46,1.46,0,0,0-1,.34,1,1,0,0,0-.37.76.89.89,0,0,0,.6.81,11.66,11.66,0,0,0,1.5.57l2,.62a7.7,7.7,0,0,1,2,1,5.53,5.53,0,0,1,1.5,1.58,4.62,4.62,0,0,1,.6,2.48,4.54,4.54,0,0,1-.46,2,5.38,5.38,0,0,1-1.35,1.71,7.3,7.3,0,0,1-2.13,1.2,8.26,8.26,0,0,1-2.8.45,8.6,8.6,0,0,1-2.87-.45,6.4,6.4,0,0,1-2.16-1.27,5.7,5.7,0,0,1-1.36-1.88,5.62,5.62,0,0,1-.48-2.31l4.67-.42a1.91,1.91,0,0,0,.55,1.38,1.87,1.87,0,0,0,1.38.55,1.92,1.92,0,0,0,1.36-.41,1.21,1.21,0,0,0,.43-.83.92.92,0,0,0-.61-.82,10.35,10.35,0,0,0-1.5-.6l-1.95-.66a7.46,7.46,0,0,1-2-1,5.19,5.19,0,0,1-1.5-1.59A4.59,4.59,0,0,1,136.56,38.1Z"/><path d="M152.24,33.29h12.93v4.26h-8.11v2.2h7.42v4.13h-7.42v2.47h8.39v4.27H152.24Z"/><path d="M174.38,33.29h4.82V45.94h7.56v4.68H174.38Z"/><path d="M200.24,46.76a5.92,5.92,0,0,1-.74,1.52,5.72,5.72,0,0,1-1.24,1.32,6.24,6.24,0,0,1-1.76.93,7.43,7.43,0,0,1-5-.15,6.63,6.63,0,0,1-2.13-1.4A6.4,6.4,0,0,1,188,46.89a6.88,6.88,0,0,1,0-5.2,6.51,6.51,0,0,1,3.55-3.49,6.88,6.88,0,0,1,2.68-.51,6.57,6.57,0,0,1,2.52.48,6.3,6.3,0,0,1,2,1.35,6.42,6.42,0,0,1,1.9,4.63,4.12,4.12,0,0,1,0,.51c0,.16,0,.3-.06.43l0,.44h-8.39a2.53,2.53,0,0,0,.41.82,2.47,2.47,0,0,0,.62.57,1.87,1.87,0,0,0,1,.26,2,2,0,0,0,.78-.13,1.52,1.52,0,0,0,.51-.29,1.19,1.19,0,0,0,.36-.41Zm-6.05-5.5a1.94,1.94,0,0,0-1.39.54,2.15,2.15,0,0,0-.67,1.25h4.12a2.09,2.09,0,0,0-.67-1.25A1.94,1.94,0,0,0,194.19,41.26Z"/><path d="M208.22,37.69a6.49,6.49,0,0,1,2.26.38,5,5,0,0,1,1.73,1.09,4.84,4.84,0,0,1,1.11,1.66,5.33,5.33,0,0,1,.4,2.09v7.71h-3.16c-.11-.17-.2-.33-.28-.47l-.22-.4-.19-.37a6.75,6.75,0,0,1-1.07.77,5.74,5.74,0,0,1-1.19.52,4.59,4.59,0,0,1-1.45.22,5.23,5.23,0,0,1-1.78-.29,3.94,3.94,0,0,1-1.33-.8,3.52,3.52,0,0,1-.85-1.18,3.36,3.36,0,0,1-.31-1.44,3.58,3.58,0,0,1,.39-1.65,3.43,3.43,0,0,1,1.26-1.35,7.35,7.35,0,0,1,2.3-.92,14.94,14.94,0,0,1,3.48-.35A1.61,1.61,0,0,0,209,41.8a1.12,1.12,0,0,0-.88-.4,1.47,1.47,0,0,0-.69.15,1.62,1.62,0,0,0-.68.81L202.44,42a5,5,0,0,1,.94-2.12,5.35,5.35,0,0,1,.73-.8,4.64,4.64,0,0,1,1-.68,5.56,5.56,0,0,1,1.34-.48A7.66,7.66,0,0,1,208.22,37.69Zm-.69,9.9a1.66,1.66,0,0,0,1.25-.55,1.9,1.9,0,0,0,.54-1.38v-.41a9.22,9.22,0,0,0-1.53.1,2.89,2.89,0,0,0-.92.27,1,1,0,0,0-.45.44,1.36,1.36,0,0,0-.13.57.86.86,0,0,0,.31.68A1.31,1.31,0,0,0,207.53,47.59Z"/><path d="M224.31,48.69a3.87,3.87,0,0,1-.8.55,3.92,3.92,0,0,1-1,.39,5.66,5.66,0,0,1-1.37.16,5.22,5.22,0,0,1-2.16-.47,5.63,5.63,0,0,1-1.8-1.28A6.09,6.09,0,0,1,216,46.13a6.24,6.24,0,0,1-.45-2.39,6.33,6.33,0,0,1,.45-2.4,6.21,6.21,0,0,1,1.23-1.91,5.79,5.79,0,0,1,1.8-1.28,5.21,5.21,0,0,1,2.16-.46,4.46,4.46,0,0,1,1.5.23,5.79,5.79,0,0,1,1.17.54,6.09,6.09,0,0,1,1,.74l.69-1.24h3.16V49.38a5.78,5.78,0,0,1-.46,2.31,6,6,0,0,1-1.32,1.88,6.12,6.12,0,0,1-2.05,1.27,7.45,7.45,0,0,1-2.63.45,7.77,7.77,0,0,1-1.82-.19,6.85,6.85,0,0,1-1.43-.5,5.53,5.53,0,0,1-1.92-1.51,6,6,0,0,1-1.16-2.2l4.4-.41a1.55,1.55,0,0,0,.39.55,2.07,2.07,0,0,0,.59.38,2.34,2.34,0,0,0,.95.17,2,2,0,0,0,1.5-.58,2.24,2.24,0,0,0,.56-1.62Zm0-4.95a2.31,2.31,0,0,0-.63-1.69,2.1,2.1,0,0,0-1.57-.65,2.14,2.14,0,0,0-1.57.65,2.58,2.58,0,0,0,0,3.38,2.14,2.14,0,0,0,1.57.65,2.1,2.1,0,0,0,1.57-.65A2.31,2.31,0,0,0,224.31,43.74Z"/><path d="M236.55,50.89a5.47,5.47,0,0,1-2.06-.37,4.46,4.46,0,0,1-1.61-1.09,4.76,4.76,0,0,1-1-1.73,6.66,6.66,0,0,1-.38-2.31V38h4.41v6.6a2.27,2.27,0,0,0,.55,1.63,1.81,1.81,0,0,0,1.37.57,1.85,1.85,0,0,0,1.38-.57,2.31,2.31,0,0,0,.55-1.63V38h4.4V50.62H241l-.69-1.24a5.71,5.71,0,0,1-1,.77,5.23,5.23,0,0,1-1.16.52A5,5,0,0,1,236.55,50.89Z"/><path d="M258.84,46.76a6.31,6.31,0,0,1-.75,1.52,5.72,5.72,0,0,1-1.24,1.32,6.24,6.24,0,0,1-1.76.93,7.43,7.43,0,0,1-5-.15A6.63,6.63,0,0,1,248,49a6.4,6.4,0,0,1-1.42-2.09,6.88,6.88,0,0,1,0-5.2,6.51,6.51,0,0,1,3.55-3.49,6.92,6.92,0,0,1,2.68-.51,6.57,6.57,0,0,1,2.52.48,6.32,6.32,0,0,1,3.44,3.4,6.42,6.42,0,0,1,.51,2.58,4.12,4.12,0,0,1,0,.51c0,.16,0,.3-.05.43l-.06.44h-8.39a2.53,2.53,0,0,0,.41.82,2.66,2.66,0,0,0,.62.57,1.89,1.89,0,0,0,1,.26,2,2,0,0,0,.79-.13,1.75,1.75,0,0,0,.51-.29,1.27,1.27,0,0,0,.35-.41Zm-6.06-5.5a1.94,1.94,0,0,0-1.39.54,2.15,2.15,0,0,0-.67,1.25h4.13a2.16,2.16,0,0,0-.68-1.25A1.92,1.92,0,0,0,252.78,41.26Z"/><path d="M124.16,65.28a4.55,4.55,0,0,1,.53-2.22,5.11,5.11,0,0,1,1.39-1.6,6.23,6.23,0,0,1,1.9-1,6.77,6.77,0,0,1,2.06-.33,5.21,5.21,0,0,1,2,.39,4.89,4.89,0,0,1,1.63,1.06,4.68,4.68,0,0,1,1.06,1.66,5.79,5.79,0,0,1,.37,2.12H133a3.35,3.35,0,0,0-.23-1.26,3.27,3.27,0,0,0-.65-1,3.06,3.06,0,0,0-1-.73,2.8,2.8,0,0,0-1.22-.28,3.86,3.86,0,0,0-1.5.27,3.45,3.45,0,0,0-1.1.67,2.82,2.82,0,0,0-.69.93,2.72,2.72,0,0,0-.23,1.08,1.87,1.87,0,0,0,.58,1.43,6,6,0,0,0,1.44,1c.58.3,1.2.58,1.88.86a11.06,11.06,0,0,1,1.88,1,5.09,5.09,0,0,1,1.45,1.36,3.44,3.44,0,0,1,.57,2,4.73,4.73,0,0,1-1.56,3.55,6,6,0,0,1-1.86,1.15,6.75,6.75,0,0,1-2.46.42,6.58,6.58,0,0,1-2.39-.4,4.84,4.84,0,0,1-1.76-1.1A4.71,4.71,0,0,1,123,74.6a5.58,5.58,0,0,1-.37-2.08h2.17a3.2,3.2,0,0,0,.91,2.44,3.69,3.69,0,0,0,2.66.87A3.78,3.78,0,0,0,131,75a2.7,2.7,0,0,0,.94-2.08,2,2,0,0,0-.58-1.45,6,6,0,0,0-1.45-1c-.58-.29-1.21-.57-1.88-.84a11.21,11.21,0,0,1-1.86-1,5.35,5.35,0,0,1-1.45-1.35A3.42,3.42,0,0,1,124.16,65.28Z"/><path d="M147,74.31a7.07,7.07,0,0,1-2.29,2.48,5.65,5.65,0,0,1-3.2,1,5.22,5.22,0,0,1-2.08-.41,4.92,4.92,0,0,1-1.66-1.14,5.62,5.62,0,0,1-1.1-1.73,5.87,5.87,0,0,1-.4-2.21,7.36,7.36,0,0,1,.55-2.91,7.67,7.67,0,0,1,1.44-2.26,6.67,6.67,0,0,1,2-1.47,5.48,5.48,0,0,1,2.32-.52,5.33,5.33,0,0,1,2.24.45,5.16,5.16,0,0,1,1.64,1.2,5,5,0,0,1,1,1.69,5.91,5.91,0,0,1,.34,1.94,4.17,4.17,0,0,1-.21,1.49,2,2,0,0,0-.18.52h-9.06a4,4,0,0,0,.27,1.25,3.63,3.63,0,0,0,.63,1.1,2.91,2.91,0,0,0,2.38,1.09,2.94,2.94,0,0,0,1-.17,5.24,5.24,0,0,0,.86-.4,3.85,3.85,0,0,0,.68-.49,2.3,2.3,0,0,0,.41-.46ZM142.65,67a3.09,3.09,0,0,0-1.25.27,4.6,4.6,0,0,0-1.15.74,5.07,5.07,0,0,0-1,1.13,5.88,5.88,0,0,0-.68,1.43h7.13a3.9,3.9,0,0,0-.21-1.48,3.24,3.24,0,0,0-.67-1.14,2.89,2.89,0,0,0-1-.71A3.12,3.12,0,0,0,142.65,67Z"/><path d="M155.57,65.1a5.06,5.06,0,0,1,2.35.48,4.09,4.09,0,0,1,1.44,1.18,3.42,3.42,0,0,1,.64,1.5,4.17,4.17,0,0,1,0,1.4l-1.39,8h-1.52l-.34-1.37a4.12,4.12,0,0,1-.9.76,4.39,4.39,0,0,1-1.11.52,4.58,4.58,0,0,1-1.51.22,4.51,4.51,0,0,1-1.66-.28,3.58,3.58,0,0,1-1.24-.75,3,3,0,0,1-.77-1.13,3.47,3.47,0,0,1-.26-1.36,3.06,3.06,0,0,1,.66-2A4.57,4.57,0,0,1,151.81,71a10.91,10.91,0,0,1,2.72-.69,25.54,25.54,0,0,1,3.38-.21l.08-.47a2.18,2.18,0,0,0-.07-1,1.76,1.76,0,0,0-.5-.81,2.75,2.75,0,0,0-.87-.55,3.08,3.08,0,0,0-1.11-.2,2.41,2.41,0,0,0-1.6.53,3.26,3.26,0,0,0-.93,1.26h-2.28a4.7,4.7,0,0,1,.64-1.37,5.74,5.74,0,0,1,1.11-1.2,5.34,5.34,0,0,1,1.45-.84A4.72,4.72,0,0,1,155.57,65.1Zm-2,10.73a4,4,0,0,0,1.44-.26,4.83,4.83,0,0,0,1.18-.67A4,4,0,0,0,157,74a2.82,2.82,0,0,0,.41-1l.17-1a22.28,22.28,0,0,0-3.32.19,6.44,6.44,0,0,0-1.85.49,1.61,1.61,0,0,0-.81.74,2.32,2.32,0,0,0-.18.92,1.24,1.24,0,0,0,.63,1.14A2.9,2.9,0,0,0,153.52,75.83Z"/><path d="M170.82,73.68a3.84,3.84,0,0,1-.34,1.63,4,4,0,0,1-.91,1.28,4.08,4.08,0,0,1-1.38.86,5.5,5.5,0,0,1-3.64,0,4,4,0,0,1-1.36-.85,3.61,3.61,0,0,1-.84-1.22,3.75,3.75,0,0,1-.29-1.45h2a1.71,1.71,0,0,0,.63,1.4,2.73,2.73,0,0,0,1.79.52,2.31,2.31,0,0,0,1.61-.55,1.73,1.73,0,0,0,.62-1.32,1.06,1.06,0,0,0-.42-.88,4.15,4.15,0,0,0-1-.58c-.41-.16-.86-.32-1.33-.47a6.35,6.35,0,0,1-1.33-.57,3.38,3.38,0,0,1-1-.92,2.43,2.43,0,0,1-.42-1.48,3.77,3.77,0,0,1,.31-1.5,3.91,3.91,0,0,1,.88-1.27,4.32,4.32,0,0,1,1.37-.86,4.56,4.56,0,0,1,1.76-.33,4.77,4.77,0,0,1,1.76.3,3.69,3.69,0,0,1,1.28.81,3.4,3.4,0,0,1,.77,1.18,3.82,3.82,0,0,1,.26,1.43h-2.09a1.8,1.8,0,0,0-.5-1.27,2.13,2.13,0,0,0-1.58-.52,2.18,2.18,0,0,0-1.55.54,1.68,1.68,0,0,0-.58,1.22,1.08,1.08,0,0,0,.41.88,4.27,4.27,0,0,0,1,.58c.4.16.85.32,1.33.46a5.59,5.59,0,0,1,1.34.58,3.59,3.59,0,0,1,1,.92A2.37,2.37,0,0,1,170.82,73.68Z"/><path d="M179.44,65.1a5.29,5.29,0,0,1,2.08.41,5.14,5.14,0,0,1,1.64,1.14,5.37,5.37,0,0,1,1.1,1.74,5.87,5.87,0,0,1,.41,2.21,7.3,7.3,0,0,1-2,5.15,6.58,6.58,0,0,1-2.06,1.48,5.82,5.82,0,0,1-2.37.52,5.29,5.29,0,0,1-2.08-.41,4.78,4.78,0,0,1-1.65-1.14,5.44,5.44,0,0,1-1.1-1.73,5.87,5.87,0,0,1-.41-2.21,7.35,7.35,0,0,1,2-5.17,6.75,6.75,0,0,1,2.07-1.47A5.66,5.66,0,0,1,179.44,65.1ZM179.32,67a3.37,3.37,0,0,0-1.52.37,4.66,4.66,0,0,0-1.37,1,5.06,5.06,0,0,0-1,1.59,5.47,5.47,0,0,0-.37,2.06,4.31,4.31,0,0,0,.26,1.51,3.8,3.8,0,0,0,.71,1.19,3.1,3.1,0,0,0,1,.77,2.82,2.82,0,0,0,1.25.28,3.37,3.37,0,0,0,1.52-.37,4.66,4.66,0,0,0,1.37-1,5.3,5.3,0,0,0,1-1.59,5.38,5.38,0,0,0,.37-2,4.45,4.45,0,0,0-.26-1.52,3.91,3.91,0,0,0-.7-1.2,3,3,0,0,0-1-.77A3,3,0,0,0,179.32,67Z"/><path d="M193.68,65.1a4.29,4.29,0,0,1,2,.43,3.88,3.88,0,0,1,1.35,1.11,4.37,4.37,0,0,1,.75,1.53,6.35,6.35,0,0,1,.22,1.65,6,6,0,0,1-.09,1.08l-1.19,6.72H194.7l1.21-6.91a3.47,3.47,0,0,0,0-1.44,3.15,3.15,0,0,0-.54-1.17A2.72,2.72,0,0,0,193.18,67a3.4,3.4,0,0,0-2.3.85,3.73,3.73,0,0,0-1.22,2.31l-1.29,7.43H186.3l2.18-12.39H190l.32,1.38a5.82,5.82,0,0,1,.91-.73,5.17,5.17,0,0,1,1.05-.55A4,4,0,0,1,193.68,65.1Z"/><path d="M208.72,77.62h-2.2l3-17.33h2.2Z"/><path d="M215.32,77.62h-2.2l3-17.33h2.21Z"/></svg>