<svg xmlns="http://www.w3.org/2000/svg" viewBox="0 0 206.9 60.73"><defs><style>.a{fill:#ec2e48;}.b{fill:#fff;}</style></defs><rect class="a" width="60.73" height="60.73"/><path class="b" d="M16.66,60.73,12.54,48.88,0,48.63l10-7.58L6.36,29l10.3,7.17L27,29l-3.63,12,10,7.58-12.54.25ZM6.39,46.55l7.73.16L16.66,54l2.54-7.3,7.73-.16-6.16-4.67L23,34.47l-6.35,4.42-6.35-4.42,2.24,7.41Z"/><path class="b" d="M35,47.24l-2.26-6.5-6.89-.14,5.49-4.16-2-6.6L35,33.78l5.65-3.94-2,6.6,5.49,4.16-6.89.14Zm-5.64-7.78,4.24.08,1.4,4,1.39-4,4.25-.08-3.38-2.57,1.23-4.06L35,35.25l-3.49-2.42,1.23,4.06Z"/><path class="b" d="M16.66,34l-2.26-6.5-6.89-.14L13,23.16l-2-6.6,5.65,3.94,5.65-3.94-2,6.6,5.48,4.16-6.88.14ZM11,26.18l4.24.08,1.4,4,1.39-4,4.25-.08-3.39-2.57,1.23-4.06L16.66,22l-3.49-2.42,1.23,4.06Z"/><path d="M93.07,53.4H84V22.67H72.68V13.89h31.68v8.78H93.07Z"/><path d="M107.18,24.87a9.83,9.83,0,0,1,1-4.3A10.77,10.77,0,0,1,110.94,17a14.27,14.27,0,0,1,4.42-2.47,17.32,17.32,0,0,1,5.93-.94,16.38,16.38,0,0,1,5.74.94,12.43,12.43,0,0,1,4.33,2.63,11.87,11.87,0,0,1,2.76,4,12.79,12.79,0,0,1,1,5l-8.78.63a5,5,0,0,0-1.32-3.7,5,5,0,0,0-3.7-1.32,4.94,4.94,0,0,0-3.42,1.16,3.42,3.42,0,0,0-1.28,2.6,2.37,2.37,0,0,0,1.44,2.2,21.28,21.28,0,0,0,3.61,1.41l4.67,1.41A18.48,18.48,0,0,1,131,32.64a11.94,11.94,0,0,1,3.61,3.64A10.69,10.69,0,0,1,136,42.11a10.38,10.38,0,0,1-3.83,8.16,14.55,14.55,0,0,1-4.64,2.51,19.58,19.58,0,0,1-6.27.94,18.52,18.52,0,0,1-6.08-.94,12.71,12.71,0,0,1-4.55-2.67A11.59,11.59,0,0,1,107.84,46a13.34,13.34,0,0,1-1-5.17l8.78-.63c0,3.56,1.88,5.33,5.64,5.33a5.71,5.71,0,0,0,4-1.22,3.75,3.75,0,0,0,1.35-2.85,2.53,2.53,0,0,0-1.44-2.32,18.69,18.69,0,0,0-3.61-1.51q-2.16-.69-4.67-1.44a19.12,19.12,0,0,1-4.67-2.1,11.64,11.64,0,0,1-3.61-3.55A10.21,10.21,0,0,1,107.18,24.87Z"/><path d="M158.29,53.4H149.2V22.67H137.91V13.89h31.67v8.78H158.29Z"/><path d="M206.9,13.89,193.42,53.4H184L170.52,13.89h9.41l8.78,27.28,8.78-27.28Z"/></svg>