<svg xmlns="http://www.w3.org/2000/svg" viewBox="0 0 94.47 56.1"><defs><style>.a{fill:#231f20;fill-rule:evenodd;}</style></defs><path class="a" d="M92.3,3.8C93,1.61,92.3,0,89.17,0H78.84a4.47,4.47,0,0,0-4.5,2.92s-5.25,12.81-12.7,21.13c-2.41,2.41-3.5,3.18-4.82,3.18-.65,0-1.6-.77-1.6-3V3.8c0-2.63-.77-3.8-3-3.8H36a2.49,2.49,0,0,0-2.63,2.38c0,2.49,3.73,3.06,4.11,10.07V27.67c0,3.33-.6,3.94-1.92,3.94-3.5,0-12-12.87-17.08-27.59-1-2.86-2-4-4.62-4H3.54C.59,0,0,1.39,0,2.92,0,5.66,3.5,19.24,16.31,37.19,24.85,49.45,36.88,56.1,47.83,56.1c6.57,0,7.39-1.47,7.39-4V42.82c0-3,.62-3.55,2.7-3.55,1.53,0,4.16.77,10.29,6.68,7,7,8.16,10.15,12.1,10.15H90.65c2.95,0,4.43-1.47,3.58-4.39S90,44.6,85.51,39.6c-2.41-2.84-6-5.91-7.12-7.44-1.53-2-1.09-2.85,0-4.6,0,0,12.59-17.74,13.91-23.76"/></svg>